PathFileType	4	(X/Y/Z)	 s11c0001.trc
DataRate	CameraRate	NumFrames	NumMarkers	Units	OrigDataRate	OrigDataStartFrame	OrigNumFrames
200	200	4	49	mm	200	251	2000
Frame#	Time	racr			lacr			c7			jug			rlel			rdr			llel			ldr			s2			lic			ric			lasi			rasi			rpsi			lpsi			rgt			lgt			rth1			rth2			rth3			rth4			rlfc			rmfc			rsh1			rsh2			rsh3			rsh4			rlmal			rmmal			rcal			rtoe			rmt5			rmt1			lth1			lth2			lth4			lth3			llfc			lmfc			llmal			lmmal			lcal			lmt1			lmt5			lsh1			lsh2			lsh3			lsh4			ltoe			
		X1	Y1	Z1	X2	Y2	Z2	X3	Y3	Z3	X4	Y4	Z4	X5	Y5	Z5	X6	Y6	Z6	X7	Y7	Z7	X8	Y8	Z8	X9	Y9	Z9	X10	Y10	Z10	X11	Y11	Z11	X12	Y12	Z12	X13	Y13	Z13	X14	Y14	Z14	X15	Y15	Z15	X16	Y16	Z16	X17	Y17	Z17	X18	Y18	Z18	X19	Y19	Z19	X20	Y20	Z20	X21	Y21	Z21	X22	Y22	Z22	X23	Y23	Z23	X24	Y24	Z24	X25	Y25	Z25	X26	Y26	Z26	X27	Y27	Z27	X28	Y28	Z28	X29	Y29	Z29	X30	Y30	Z30	X31	Y31	Z31	X32	Y32	Z32	X33	Y33	Z33	X34	Y34	Z34	X35	Y35	Z35	X36	Y36	Z36	X37	Y37	Z37	X38	Y38	Z38	X39	Y39	Z39	X40	Y40	Z40	X41	Y41	Z41	X42	Y42	Z42	X43	Y43	Z43	X44	Y44	Z44	X45	Y45	Z45	X46	Y46	Z46	X47	Y47	Z47	X48	Y48	Z48	X49	Y49	Z49	
251	1.2550	483.911296	1568.658232	591.433498	455.795194	1596.339264	178.245889	389.950183	1619.516377	384.777224	552.840502	1560.075632	367.267055	485.919592	1310.118684	740.856225	616.593160	1083.764931	886.995035	427.681673	1301.096637	48.224090	554.003209	1062.509509	-128.740869	343.455157	1075.201840	391.687488	513.031587	1162.356010	174.602527	555.321208	1151.319258	566.308327	580.180515	1108.816062	204.174114	611.637775	1111.477263	520.843082	364.985639	1129.989735	446.355060	352.115537	1126.823267	343.645570	508.311201	960.832744	588.041625	445.658016	991.913724	173.055064	518.112975	833.499950	585.201054	538.260842	750.534465	559.813286	514.240971	668.620559	541.454409	572.219203	753.309597	547.440552	509.842422	563.079455	516.296148	504.391422	545.525316	396.601058	463.886985	413.917784	538.625875	478.780335	327.555329	524.750591	448.765754	244.995836	524.659725	505.039113	327.225884	495.730542	431.536895	108.621281	513.388029	463.431952	122.712879	425.902793	386.750993	80.300348	459.296941	667.367679	91.355313	518.987990	591.380979	54.515707	574.054857	609.823331	58.587019	458.445935	474.436992	858.952886	153.388396	493.489084	776.743081	168.396921	529.764830	775.258703	174.061204	466.960491	692.345230	182.572508	461.145672	550.426742	212.645085	475.056557	540.270229	338.805503	405.832115	117.451280	223.353612	436.798088	133.710092	297.525699	369.135664	68.609511	259.838356	592.877889	56.144136	291.998056	569.945146	55.279907	174.886372	423.599166	427.461013	191.924151	442.054601	343.562734	198.995329	416.330042	259.007078	202.653884	473.954840	344.049368	221.251481	660.201785	95.543495	243.937656	
252	1.2600	483.927816	1568.687692	591.384849	455.777131	1596.349599	178.230623	389.950069	1619.521771	384.776351	552.834475	1560.087647	367.234862	485.930459	1310.131570	740.863577	616.638132	1083.821648	887.001967	427.641698	1301.109610	48.247387	553.953687	1062.489341	-128.739197	343.453818	1075.211559	391.702769	512.988174	1162.348389	174.596533	555.322076	1151.310063	566.325325	580.141908	1108.804187	204.150453	611.622158	1111.502719	520.846107	364.985642	1129.989749	446.355056	352.093902	1126.852311	343.671374	508.310073	960.841182	588.047191	445.618660	991.910530	173.047796	518.092440	833.493574	585.204664	538.241417	750.522036	559.813393	514.251508	668.599201	541.458914	572.204216	753.297079	547.445089	509.831423	563.081381	516.300926	504.362490	545.544251	396.588957	463.898200	413.910973	538.613657	478.793080	327.555551	524.778568	448.744449	245.000349	524.670254	505.046741	327.228768	495.724589	431.575075	108.653703	513.401719	463.411556	122.728549	425.888648	386.737362	80.305980	459.295591	667.371898	91.351673	519.003958	591.388833	54.531602	574.043241	609.831169	58.599817	458.458678	474.407718	858.939211	153.413301	493.446758	776.736938	168.404690	529.737274	775.258003	174.070537	466.957901	692.342755	182.585060	461.112218	550.425750	212.646035	475.050395	540.282600	338.808914	405.824241	117.453856	223.342995	436.798106	133.701548	297.516250	369.142726	68.607941	259.837852	592.869261	56.133843	291.987392	569.939188	55.303099	174.885309	423.588700	427.468800	191.911983	442.043596	343.563547	198.991601	416.310866	259.000737	202.654517	473.932149	344.053619	221.249077	660.212834	95.571944	243.954610	
253	1.2650	483.944011	1568.691175	591.373709	455.769182	1596.329944	178.219048	389.931921	1619.527581	384.751494	552.834153	1560.071806	367.218447	485.963512	1310.164197	740.855674	616.678861	1083.851051	886.992354	427.619343	1301.083826	48.256548	553.924024	1062.488558	-128.738199	343.451421	1075.212909	391.725688	512.989582	1162.355788	174.584260	555.279043	1151.298841	566.294415	580.118594	1108.794004	204.167860	611.602567	1111.497698	520.830580	364.950578	1130.022993	446.401007	352.063586	1126.880330	343.664684	508.298325	960.839764	588.043332	445.590840	991.919011	173.059822	518.093166	833.499325	585.202480	538.254167	750.525952	559.800305	514.240179	668.624750	541.467133	572.210825	753.291077	547.441370	509.842398	563.097568	516.322708	504.393467	545.540200	396.602612	463.876354	413.915579	538.636706	478.761657	327.557732	524.772334	448.774051	244.990568	524.654631	505.040532	327.224638	495.728490	431.565703	108.668130	513.389202	463.401635	122.732261	425.887488	386.755264	80.296459	459.299472	667.378184	91.362517	518.988092	591.401631	54.532451	574.054372	609.839856	58.612114	458.471464	474.393632	858.946506	153.416307	493.432432	776.748821	168.436877	529.726329	775.237837	174.107628	466.917016	692.360863	182.562401	461.117237	550.432982	212.652375	475.059571	540.293053	338.796731	405.824847	117.454240	223.345553	436.783089	133.701635	297.514920	369.141188	68.603539	259.837946	592.878953	56.135662	291.988241	569.954149	55.297244	174.881856	423.582851	427.469047	191.928279	442.038854	343.543407	199.012133	416.318277	258.989200	202.670444	473.947875	344.053581	221.260276	660.196943	95.567229	243.941374	
254	1.2700	483.953626	1568.720021	591.362950	455.736715	1596.326311	178.200901	389.938569	1619.523980	384.718117	552.827555	1560.083769	367.204328	485.978702	1310.189630	740.855265	616.730611	1083.937463	887.013296	427.595415	1301.058663	48.241854	553.891085	1062.455684	-128.742863	343.408278	1075.231820	391.755248	512.938901	1162.336816	174.603949	555.292042	1151.325093	566.308362	580.108084	1108.798976	204.155007	611.585803	1111.490175	520.840823	364.952813	1130.009197	446.401625	352.061729	1126.874812	343.667355	508.295438	960.843188	588.056273	445.558731	991.911733	173.089339	518.091560	833.491976	585.220403	538.243517	750.522456	559.804350	514.226557	668.622558	541.463285	572.174231	753.319777	547.441946	509.812295	563.078455	516.311563	504.358612	545.549557	396.595649	463.886541	413.903460	538.624601	478.769146	327.557375	524.776847	448.748437	244.971104	524.662488	505.025528	327.221017	495.729026	431.560776	108.664961	513.396049	463.435005	122.731042	425.894207	386.756823	80.307088	459.300072	667.373357	91.351552	518.999762	591.256999	54.419280	574.066300	609.831578	58.596294	458.470205	474.365031	858.931096	153.425200	493.405278	776.748407	168.438998	529.683598	775.232953	174.080286	466.899589	692.348882	182.579077	461.104530	550.414300	212.664671	475.040395	540.270778	338.811900	405.806291	117.445879	223.343673	436.771350	133.689882	297.517347	369.143472	68.598388	259.821781	592.863743	56.134613	291.991081	569.940292	55.298529	174.886292	423.558092	427.449671	191.921167	442.050970	343.560951	198.993046	416.304464	258.983335	202.660345	473.930085	344.049793	221.252177	660.212255	95.569603	243.941244	
